HIERARCHY
ROOT hip
{
  OFFSET 58.5585 80.7454 2.12661
  CHANNELS 6 Xposition Yposition Zposition Zrotation Xrotation Yrotation
  JOINT abdomen
  {
    OFFSET 0 20.6881 -0.73152
    CHANNELS 3 Zrotation Xrotation Yrotation
    JOINT chest
    {
      OFFSET 0 11.7043 -0.48768
      CHANNELS 3 Zrotation Xrotation Yrotation
      JOINT neck
      {
        OFFSET 0 22.1894 -2.19456
        CHANNELS 3 Zrotation Xrotation Yrotation
        JOINT head
        {
          OFFSET -0.24384 7.07133 1.2192
          CHANNELS 3 Zrotation Xrotation Yrotation
          JOINT leftEye
          {
            OFFSET 4.14528 8.04674 8.04672
            CHANNELS 3 Zrotation Xrotation Yrotation
            End Site
            {
              OFFSET 1 0 0
            }
          }
          JOINT rightEye
          {
            OFFSET -3.6576 8.04674 8.04672
            CHANNELS 3 Zrotation Xrotation Yrotation
            End Site
            {
              OFFSET 1 0 0
            }
          }
        }
      }
      JOINT rCollar
      {
        OFFSET -2.68224 19.2634 -4.8768
        CHANNELS 3 Zrotation Xrotation Yrotation
        JOINT rShldr
        {
          OFFSET -8.77824 -1.95073 1.46304
          CHANNELS 3 Zrotation Xrotation Yrotation
          JOINT rForeArm
          {
            OFFSET -28.1742 -1.7115 0.48768
            CHANNELS 3 Zrotation Xrotation Yrotation
            JOINT rHand
            {
              OFFSET -22.5879 0.773209 7.07136
              CHANNELS 3 Zrotation Xrotation Yrotation
              JOINT rThumb1
              {
                OFFSET -1.2192 -0.487915 3.41376
                CHANNELS 3 Zrotation Xrotation Yrotation
                JOINT rThumb2
                {
                  OFFSET -3.37035 -0.52449 3.41376
                  CHANNELS 3 Zrotation Xrotation Yrotation
                  End Site
                  {
                    OFFSET -1.78271 -1.18214 1.43049
                  }
                }
              }
              JOINT rIndex1
              {
                OFFSET -7.75947 0.938293 5.60832
                CHANNELS 3 Zrotation Xrotation Yrotation
                JOINT rIndex2
                {
                  OFFSET -2.54057 -0.884171 1.56538
                  CHANNELS 3 Zrotation Xrotation Yrotation
                  End Site
                  {
                    OFFSET -1.62519 -0.234802 1.16502
                  }
                }
              }
              JOINT rMid1
              {
                OFFSET -8.24714 1.18213 3.41376
                CHANNELS 3 Zrotation Xrotation Yrotation
                JOINT rMid2
                {
                  OFFSET -3.10165 -0.590103 1.0647
                  CHANNELS 3 Zrotation Xrotation Yrotation
                  End Site
                  {
                    OFFSET -2.48547 -0.328903 0.83742
                  }
                }
              }
              JOINT rRing1
              {
                OFFSET -8.82822 0.546677 1.51678
                CHANNELS 3 Zrotation Xrotation Yrotation
                JOINT rRing2
                {
                  OFFSET -2.60934 -0.819778 -0.0198488
                  CHANNELS 3 Zrotation Xrotation Yrotation
                  End Site
                  {
                    OFFSET -2.33842 -0.294052 0.168128
                  }
                }
              }
              JOINT rPinky1
              {
                OFFSET -8.27202 -0.0477905 -0.4584
                CHANNELS 3 Zrotation Xrotation Yrotation
                JOINT rPinky2
                {
                  OFFSET -1.82734 -0.647385 -0.700984
                  CHANNELS 3 Zrotation Xrotation Yrotation
                  End Site
                  {
                    OFFSET -1.69225 -0.51767 -0.607171
                  }
                }
              }
            }
          }
        }
      }
      JOINT lCollar
      {
        OFFSET 2.68224 19.2634 -4.8768
        CHANNELS 3 Zrotation Xrotation Yrotation
        JOINT lShldr
        {
          OFFSET 8.77824 -1.95073 1.46304
          CHANNELS 3 Zrotation Xrotation Yrotation
          JOINT lForeArm
          {
            OFFSET 28.1742 -1.7115 0.48768
            CHANNELS 3 Zrotation Xrotation Yrotation
            JOINT lHand
            {
              OFFSET 22.5879 0.773209 7.07136
              CHANNELS 3 Zrotation Xrotation Yrotation
              JOINT lThumb1
              {
                OFFSET 1.2192 -0.487915 3.41376
                CHANNELS 3 Zrotation Xrotation Yrotation
                JOINT lThumb2
                {
                  OFFSET 3.37035 -0.52449 3.41376
                  CHANNELS 3 Zrotation Xrotation Yrotation
                  End Site
                  {
                    OFFSET 1.78271 -1.18214 1.43049
                  }
                }
              }
              JOINT lIndex1
              {
                OFFSET 7.75947 0.938293 5.60832
                CHANNELS 3 Zrotation Xrotation Yrotation
                JOINT lIndex2
                {
                  OFFSET 2.54057 -0.884171 1.56538
                  CHANNELS 3 Zrotation Xrotation Yrotation
                  End Site
                  {
                    OFFSET 1.62519 -0.234802 1.16502
                  }
                }
              }
              JOINT lMid1
              {
                OFFSET 8.24714 1.18213 3.41376
                CHANNELS 3 Zrotation Xrotation Yrotation
                JOINT lMid2
                {
                  OFFSET 3.10165 -0.590103 1.0647
                  CHANNELS 3 Zrotation Xrotation Yrotation
                  End Site
                  {
                    OFFSET 2.48547 -0.328903 0.83742
                  }
                }
              }
              JOINT lRing1
              {
                OFFSET 8.82822 0.546677 1.51678
                CHANNELS 3 Zrotation Xrotation Yrotation
                JOINT lRing2
                {
                  OFFSET 2.60934 -0.819778 -0.0198488
                  CHANNELS 3 Zrotation Xrotation Yrotation
                  End Site
                  {
                    OFFSET 2.33842 -0.294052 0.168128
                  }
                }
              }
              JOINT lPinky1
              {
                OFFSET 8.27202 -0.0477905 -0.4584
                CHANNELS 3 Zrotation Xrotation Yrotation
                JOINT lPinky2
                {
                  OFFSET 1.82734 -0.647385 -0.700984
                  CHANNELS 3 Zrotation Xrotation Yrotation
                  End Site
                  {
                    OFFSET 1.69225 -0.51767 -0.607171
                  }
                }
              }
            }
          }
        }
      }
    }
  }
  JOINT rButtock
  {
    OFFSET -8.77824 4.35084 1.2192
    CHANNELS 3 Zrotation Xrotation Yrotation
    JOINT rThigh
    {
      OFFSET 0 -1.70687 -2.19456
      CHANNELS 3 Zrotation Xrotation Yrotation
      JOINT rShin
      {
        OFFSET 0 -36.8199 0.73152
        CHANNELS 3 Zrotation Xrotation Yrotation
        JOINT rFoot
        {
          OFFSET 0.73152 -45.1104 -5.12064
          CHANNELS 3 Zrotation Xrotation Yrotation
          End Site
          {
            OFFSET -1.1221 -3.69964 12.103
          }
        }
      }
    }
  }
  JOINT lButtock
  {
    OFFSET 8.77824 4.35084 1.2192
    CHANNELS 3 Zrotation Xrotation Yrotation
    JOINT lThigh
    {
      OFFSET 0 -1.70687 -2.19456
      CHANNELS 3 Zrotation Xrotation Yrotation
      JOINT lShin
      {
        OFFSET 0 -36.8199 0.73152
        CHANNELS 3 Zrotation Xrotation Yrotation
        JOINT lFoot
        {
          OFFSET -0.73152 -45.1104 -5.12064
          CHANNELS 3 Zrotation Xrotation Yrotation
          End Site
          {
            OFFSET 1.1221 -3.69964 12.103
          }
        }
      }
    }
  }
}
MOTION
Frames:	4
Frame Time:	0.00833333
60.8093 82.6021 4.7753 -2.22819 0.0101905 0.0426296 2.93086 0.00146927 0.0791281 0.807963 0.0160284 0.13979 5.00338e-014 0 -2.48481e-016 1.502e-013 3.18055e-015 -7.98245e-016 -0 0 0 -0 0 0 2.49967e-014 5.04727e-018 -4.96962e-017 5.26112e-013 1.2424e-017 -5.96354e-016 9.0702e-012 -2.69035e-012 -1.49486e-013 1.03447e-010 2.72934e-012 -4.13472e-013 2.44078e-010 8.5772e-014 -1.23406e-012 4.21496e-010 1.49486e-013 -2.13256e-012 2.4408e-010 8.54774e-014 -1.2436e-012 7.73091 5.47488 0.417314 2.44077e-010 8.5378e-014 -1.22451e-012 2.90554 0.965183 0.102902 2.4408e-010 8.54774e-014 -1.22769e-012 10.2786 0.731801 0.0259123 2.44071e-010 8.74653e-014 -1.21179e-012 2.22167 -0.733487 -0.20892 2.48005e-014 6.40615e-018 -4.47265e-016 5.23783e-013 -5.59082e-017 -1.98785e-015 9.0125e-012 2.71599e-012 -1.27222e-013 1.03497e-010 -2.68747e-012 -4.26194e-013 2.4407e-010 6.5456e-014 -1.23406e-012 4.21516e-010 1.145e-013 -2.13733e-012 2.44063e-010 6.44062e-014 -1.21815e-012 -7.73091 5.47488 -0.417314 2.44071e-010 6.53008e-014 -1.22769e-012 -2.90554 0.965183 -0.102902 2.44066e-010 6.52014e-014 -1.23406e-012 -10.2786 0.731801 -0.0259123 2.44081e-010 6.83819e-014 -1.24678e-012 -2.22167 -0.733487 0.20892 -2.03217e-016 0 -3.88251e-019 2.69361 -8.99527 -0.298753 0.00819707 10.7115 0.212049 -0.52681 -1.72856 0.0238629 2.03217e-016 0 3.88251e-019 1.75944 -1.93355 -0.012013 0.00859618 -2.07865 0.0706059 0.465803 3.99976 -0.133507 
58.5653 80.7434 2.11482 1.76964 -1.1917 -23.5795 1.58543 -0.387403 -0.152015 1.49057 -0.702568 0.0788225 -1.08543 2.60726 -1.30357 -0.93616 -3.84879 -2.66719 -0 0 0 -0 0 0 1.75952e-014 6.98512e-013 -3.27746e-014 12.6472 3.8807 9.62614 -23.0318 -20.9044 14.8798 0.0668553 5.74087 0.792272 -1.06685e-010 -1.84516e-010 3.93343e-011 -1.80633e-010 -3.18776e-010 7.09182e-011 -1.06681e-010 -1.84519e-010 3.93247e-011 7.73091 5.47488 0.417314 -1.06684e-010 -1.84519e-010 3.93413e-011 2.90554 0.965183 0.102902 -1.0668e-010 -1.84519e-010 3.93379e-011 10.2786 0.731801 0.0259123 -1.06691e-010 -1.84516e-010 3.93513e-011 2.22167 -0.733487 -0.20892 1.73897e-014 6.98514e-013 -3.30973e-014 -14.4075 7.5593 -13.2376 19.7632 -17.4911 -15.1634 -0.13163 8.06283 -1.09305 8.12094e-011 -2.3023e-010 6.14605e-010 1.52217e-010 -3.83346e-010 1.06364e-009 8.12043e-011 -2.30232e-010 6.14614e-010 -7.73091 5.47488 -0.417314 8.12094e-011 -2.30231e-010 6.14609e-010 -2.90554 0.965183 -0.102902 8.12051e-011 -2.30231e-010 6.14605e-010 -10.2786 0.731801 -0.0259123 8.12193e-011 -2.30228e-010 6.14592e-010 -2.22167 -0.733487 0.20892 -2.03217e-016 0 -3.88251e-019 -2.25818 -15.5672 0.690412 0.00286572 19.8123 0.366921 -1.04698 -6.37328 -2.21803 2.03217e-016 0 3.88251e-019 5.10851 -10.942 -1.71302 0.0197833 9.25751 -0.066325 1.13282 0.558591 3.45712 
58.5795 80.7439 2.11394 5.05379 -1.78239 -48.5715 0.158521 -0.798981 -0.398483 2.21195 -1.46099 0.0137757 -2.1018 5.36679 -2.69259 -2.3251 -7.89676 -5.53272 -0 0 0 -0 0 0 9.87204e-015 1.44803e-012 -6.74625e-014 24.6166 7.61722 19.9427 -33.4667 -37.8865 37.2746 -0.0384997 11.8089 1.65708 -4.84892e-010 -3.83818e-010 8.37291e-011 -8.29858e-010 -6.6311e-010 1.50844e-010 -4.84886e-010 -3.83824e-010 8.37196e-011 7.73091 5.47488 0.417314 -4.8489e-010 -3.83823e-010 8.37335e-011 2.90554 0.965183 0.102902 -4.84885e-010 -3.83823e-010 8.37297e-011 10.2786 0.731801 0.0259123 -4.84897e-010 -3.8382e-010 8.37406e-011 2.22167 -0.733487 -0.20892 9.65296e-015 1.44803e-012 -6.77017e-014 -25.884 14.189 -27.9135 29.6159 -31.6692 -35.6253 0.07685 16.5762 -2.32288 -8.78061e-011 -4.77246e-010 1.2824e-009 -1.26704e-010 -7.94418e-010 2.2192e-009 -8.78091e-011 -4.77249e-010 1.2824e-009 -7.73091 5.47488 -0.417314 -8.78062e-011 -4.77248e-010 1.28241e-009 -2.90554 0.965183 -0.102902 -8.78103e-011 -4.77248e-010 1.2824e-009 -10.2786 0.731801 -0.0259123 -8.77965e-011 -4.77244e-010 1.28239e-009 -2.22167 -0.733487 0.20892 -2.03217e-016 0 -3.88251e-019 -7.22778 -22.5059 1.81836 -0.064994 29.4325 0.562469 -1.9987 -11.2565 -4.64927 2.03217e-016 0 3.88251e-019 8.03072 -20.4365 -3.679 0.0937768 21.2414 -0.224448 2.30581 -3.05044 7.26253 
58.5544 80.7499 2.12321 7.62178 -1.28813 -70.849 -1.11485 -1.16509 -0.614419 2.8512 -2.13976 -0.04316 -2.89786 7.80551 -3.94325 -3.89809 -11.4453 -8.14659 -0 0 0 -0 0 0 2.79222e-015 2.09552e-012 -9.82245e-014 34.1616 10.3289 29.332 -30.7806 -42.5014 64.3216 -0.294573 17.2091 2.4758 -8.0821e-010 -5.53721e-010 1.20471e-010 -1.38489e-009 -9.56627e-010 2.1702e-010 -8.08202e-010 -5.53729e-010 1.20461e-010 7.73091 5.47488 0.417314 -8.08207e-010 -5.53728e-010 1.20473e-010 2.90554 0.965183 0.102902 -8.082e-010 -5.53727e-010 1.20469e-010 10.2786 0.731801 0.0259123 -8.08214e-010 -5.53723e-010 1.20478e-010 2.22167 -0.733487 -0.20892 2.56813e-015 2.09553e-012 -9.83972e-014 -33.2705 17.7997 -41.7664 29.6325 -36.1722 -58.2343 0.602685 24.1515 -3.55859 -2.44513e-010 -6.90821e-010 1.84628e-009 -3.8638e-010 -1.15027e-009 3.19519e-009 -2.44514e-010 -6.90825e-010 1.84628e-009 -7.73091 5.47488 -0.417314 -2.44513e-010 -6.90825e-010 1.84628e-009 -2.90554 0.965183 -0.102902 -2.44517e-010 -6.90824e-010 1.84628e-009 -10.2786 0.731801 -0.0259123 -2.44503e-010 -6.9082e-010 1.84627e-009 -2.22167 -0.733487 0.20892 -2.03217e-016 0 -3.88251e-019 -11.3955 -28.682 2.94732 -0.197298 38.0123 0.785532 -3.21134 -15.5684 -6.91554 2.03217e-016 0 3.88251e-019 10.0069 -28.8514 -5.73549 0.225588 31.9292 -0.39767 3.75804 -6.21167 10.7008 
